:SAMPLES-PER-SECOND 30
:FULLY-SPECIFIED
:DEGREES
284
root  15.5437 39.2812 -12.3964 -51.0456 87.5828 -48.3496
RightUpLeg  -2.10023 -14.6713 0.0320112
RightLeg  24.2762 -0.811313 -0.506602
RightFoot  -17.416 -0.144481 -0.5118
RightToes  0.00048216 0.542163 -0.142577
Spine  14.5481 -1.54999 13.3237
Spine1  11.9213 0.142197 -0.335279
HEad  8.10363 -1.58338 -4.60286
LeftShoulder1  9.92039 -14.4401 -48.2651
LeftArm  -3.28857 15.4371 -27.605
LeftForeArm  20.79 -21.1669 -3.94242
LeftHand  -0.25398 0.0180481 5.50724
RightShoulder  5.56296 9.90549 35.5149
RightArm  -3.22929 6.46415 30.727
RightForeArm  0.735333 13.9527 7.16123
RightHand  -1.26694 3.4115 -16.9058
LeftUpLeg  -27.2668 13.4647 -0.0761747
LeftLeg  42.4338 3.70128 3.99232
LeftFoot  -5.28522 0.236122 -3.86335
LeftToes  1.06243e-005 4.65856e-005 -8.18503e-006
285
root  16.9461 39.2265 -12.3255 -40.1537 87.0449 -37.6262
RightUpLeg  0.784213 -13.7428 -0.425352
RightLeg  22.9318 -0.982962 -0.316467
RightFoot  -18.6726 -0.148112 -0.336634
RightToes  0.00048216 0.542163 -0.142577
Spine  13.7035 -1.09639 13.5769
Spine1  12.5933 0.715472 -1.25517
HEad  8.40223 -1.69714 -4.61482
LeftShoulder1  9.9379 -14.4315 -48.3747
LeftArm  -4.01226 16.2671 -27.0912
LeftForeArm  20.5386 -19.5622 -4.19354
LeftHand  -0.25398 0.0180481 5.50724
RightShoulder  5.46126 9.8294 34.9989
RightArm  -0.487568 10.6384 30.72
RightForeArm  -0.974945 15.6067 6.92675
RightHand  -1.24403 3.28337 -16.8425
LeftUpLeg  -28.5196 16.2147 -1.45025
LeftLeg  31.6055 4.30966 3.32011
LeftFoot  -4.42971 0.254838 -3.78127
LeftToes  1.06243e-005 4.65856e-005 -8.18503e-006
286
root  18.3771 39.0569 -12.2756 -37.5641 86.1496 -35.196
RightUpLeg  3.41509 -12.7627 -0.376443
RightLeg  22.1631 -1.27115 -0.333837
RightFoot  -20.0225 -0.173547 -0.492052
RightToes  0.00048216 0.542163 -0.142577
Spine  12.9019 -0.782127 14.1115
Spine1  13.5536 1.24607 -2.13237
HEad  8.48348 -1.44948 -4.57466
LeftShoulder1  9.94673 -14.4137 -48.4664
LeftArm  -5.06565 16.9521 -26.6567
LeftForeArm  20.5928 -18.0587 -4.47793
LeftHand  -0.25398 0.0180481 5.50724
RightShoulder  5.41319 9.83717 34.6203
RightArm  2.36409 14.7463 30.5529
RightForeArm  -3.25128 17.2872 6.58433
RightHand  -1.29468 3.45455 -17.1826
LeftUpLeg  -28.6214 18.0489 -1.9031
LeftLeg  19.7607 5.53325 1.9849
LeftFoot  -3.81782 0.28195 -3.93322
LeftToes  1.06243e-005 4.65856e-005 -8.18503e-006
287
root  19.8437 38.8196 -12.2393 -34.519 84.9522 -32.1068
RightUpLeg  6.23599 -11.4979 -0.234165
RightLeg  21.4835 -1.5899 -0.500711
RightFoot  -21.6094 -0.192097 -0.520581
RightToes  0.00048216 0.542163 -0.142577
Spine  12.4196 -0.498758 14.3652
Spine1  14.826 1.8403 -2.89702
HEad  8.39613 -0.862045 -4.5126
LeftShoulder1  9.9326 -14.3789 -48.492
LeftArm  -6.17287 17.5151 -26.3633
LeftForeArm  20.9988 -16.5713 -4.74973
LeftHand  -0.25398 0.0180481 5.50724
RightShoulder  5.41098 9.89882 34.4196
RightArm  4.85381 18.7734 30.2857
RightForeArm  -5.48587 18.7162 6.25419
RightHand  -1.38417 3.78921 -17.6997
LeftUpLeg  -26.6941 14.0762 1.59688
LeftLeg  7.03394 12.651 -1.7343
LeftFoot  -2.48678 0.354743 -4.38247
LeftToes  1.06243e-005 4.65856e-005 -8.18503e-006
288
root  21.3955 38.4431 -12.2356 -33.2751 83.6011 -30.4046
RightUpLeg  9.49159 -10.3951 -0.308962
RightLeg  21.2509 -1.35122 -0.492301
RightFoot  -23.5888 -0.109532 0.452297
RightToes  0.00048216 0.542163 -0.142577
Spine  12.4072 -0.299131 14.4036
Spine1  16.0204 2.27281 -3.31148
HEad  8.0635 -0.0812993 -4.34747
LeftShoulder1  9.8475 -14.2944 -48.3026
LeftArm  -7.21532 17.9106 -26.2903
LeftForeArm  21.6282 -15.1321 -4.98207
LeftHand  -0.25398 0.0180481 5.50724
RightShoulder  5.41793 9.99228 34.1941
RightArm  6.50009 22.4135 30.3345
RightForeArm  -6.80632 19.9932 5.89801
RightHand  -1.42814 3.93899 -17.9654
LeftUpLeg  -24.1429 6.17847 7.39948
LeftLeg  -4.26496 23.1416 -6.74487
LeftFoot  -1.4914 0.438399 -5.0237
LeftToes  1.06243e-005 4.65856e-005 -8.18503e-006
289
root  23.0787 37.9117 -12.2815 -35.4207 82.5725 -31.8987
RightUpLeg  12.8916 -10.1414 -0.801624
RightLeg  21.9055 -0.439668 -0.231662
RightFoot  -25.5018 0.0433687 1.75296
RightToes  0.00048216 0.542163 -0.142577
Spine  12.5927 -0.249052 14.4476
Spine1  16.7994 2.36027 -3.34231
HEad  7.51329 0.531634 -3.93471
LeftShoulder1  9.73825 -14.2684 -47.8316
LeftArm  -8.10284 18.1391 -26.3767
LeftForeArm  22.3913 -13.811 -5.15434
LeftHand  -0.25398 0.0180481 5.50724
RightShoulder  5.40937 10.1118 33.7827
RightArm  6.92917 24.9231 30.8123
RightForeArm  -7.21947 21.609 5.49432
RightHand  -1.40525 3.802 -17.9364
LeftUpLeg  -24.1525 6.93445 8.01059
LeftLeg  -7.20477 23.1443 -7.40379
LeftFoot  -3.16929 0.493039 -6.59734
LeftToes  1.06243e-005 4.65856e-005 -8.18503e-006
290
root  24.8274 37.3934 -12.3445 -36.2438 82.308 -32.6373
RightUpLeg  15.6859 -10.2102 -1.78481
RightLeg  22.7725 0.123765 -0.114216
RightFoot  -26.8101 0.169273 2.58667
RightToes  0.00048216 0.542163 -0.142577
Spine  12.6575 -0.263276 13.7508
Spine1  17.4713 2.411 -3.29951
HEad  6.97041 0.791339 -3.41355
LeftShoulder1  9.72421 -14.3863 -47.4414
LeftArm  -8.70153 18.2309 -26.2394
LeftForeArm  23.3609 -12.5199 -5.30361
LeftHand  -0.25398 0.0180481 5.50724
RightShoulder  5.41427 10.2494 33.423
RightArm  5.93631 25.795 31.1499
RightForeArm  -7.02512 23.8898 5.44482
RightHand  -1.39277 3.67032 -18.027
LeftUpLeg  -24.4956 7.27406 7.96206
LeftLeg  -5.91403 23.7527 -7.28592
LeftFoot  -3.50031 0.454597 -6.31074
LeftToes  1.06243e-005 4.65856e-005 -8.18503e-006
291
root  26.617 36.8892 -12.4066 -31.9279 82.2117 -29.0648
RightUpLeg  17.2525 -9.39525 -2.98626
RightLeg  24.1314 0.2435 -0.114554
RightFoot  -27.9955 0.469326 4.45636
RightToes  0.00048216 0.542163 -0.142577
Spine  12.4385 0.128549 11.9908
Spine1  17.9202 2.67066 -3.01318
HEad  6.46214 0.895087 -2.98153
LeftShoulder1  9.79334 -14.4894 -47.5061
LeftArm  -8.99835 17.9583 -25.6045
LeftForeArm  24.3081 -11.1309 -5.47364
LeftHand  -0.25398 0.0180481 5.50724
RightShoulder  5.53131 10.4489 33.6951
RightArm  4.17796 25.4004 30.7111
RightForeArm  -6.35978 26.607 6.04697
RightHand  -1.45841 3.85375 -18.4905
LeftUpLeg  -26.2063 8.36174 6.98519
LeftLeg  -0.964949 24.6275 -6.04507
LeftFoot  0.785573 0.291728 -2.97752
LeftToes  1.06243e-005 4.65856e-005 -8.18503e-006
292
root  28.3438 36.4102 -12.4508 -22.2382 82.3209 -20.4538
RightUpLeg  17.1297 -7.6765 -4.54142
RightLeg  27.5848 0.35791 -0.0285877
RightFoot  -27.8563 1.1101 9.0306
RightToes  0.00048216 0.542163 -0.142577
Spine  12.8472 0.82458 8.86077
Spine1  17.6438 2.77987 -2.2287
HEad  5.56568 0.969267 -2.38326
LeftShoulder1  9.81497 -14.4647 -47.679
LeftArm  -9.31879 16.8564 -24.8017
LeftForeArm  24.6406 -9.79528 -5.58205
LeftHand  -0.25398 0.0180481 5.50724
RightShoulder  5.82689 10.7853 34.8147
RightArm  3.06135 24.58 29.6955
RightForeArm  -5.65775 29.1252 6.62071
RightHand  -1.56497 4.25307 -19.019
LeftUpLeg  -30.4586 13.1301 3.02482
LeftLeg  7.30413 20.5584 -2.78406
LeftFoot  8.61644 -0.41936 1.99003
LeftToes  1.06243e-005 4.65856e-005 -8.18503e-006
293
root  29.8534 36.1153 -12.4986 -9.10628 83.2926 -8.19083
RightUpLeg  14.3283 -6.4216 -6.56952
RightLeg  35.3995 0.0239443 -0.265582
RightFoot  -23.0452 1.26264 13.9452
RightToes  0.00048216 0.542163 -0.142577
Spine  15.2485 1.10611 5.05299
Spine1  16.3418 2.35529 -1.44216
HEad  3.78354 0.824734 -1.34336
LeftShoulder1  9.83339 -14.6153 -47.3676
LeftArm  -10.004 14.6234 -24.2023
LeftForeArm  24.2131 -9.00956 -5.49651
LeftHand  -0.25398 0.0180481 5.50724
RightShoulder  6.19285 11.2448 36.0061
RightArm  1.94649 23.9307 29.1659
RightForeArm  -4.1404 30.4937 6.88463
RightHand  -1.61604 4.46546 -19.2162
LeftUpLeg  -35.5782 21.4181 -5.55172
LeftLeg  13.8077 8.99937 0.500818
LeftFoot  15.1752 -1.68241 6.81526
LeftToes  1.06243e-005 4.65856e-005 -8.18503e-006
294
root  31.0712 36.0436 -12.6115 6.59064 84.4597 6.87546
RightUpLeg  8.00593 -6.20966 -8.63366
RightLeg  47.5828 -0.755874 -1.24045
RightFoot  -12.7995 0.145008 14.7207
RightToes  0.00048216 0.542163 -0.142577
Spine  19.6943 0.812991 2.48508
Spine1  14.5051 1.73353 -1.56991
HEad  1.05096 0.456551 -0.41343
LeftShoulder1  10.0527 -15.276 -46.7049
LeftArm  -10.8733 11.1716 -23.5598
LeftForeArm  23.682 -9.18376 -5.3123
LeftHand  -0.25398 0.0180481 5.50724
RightShoulder  6.38078 11.6773 36.0465
RightArm  0.7973 24.0231 30.1773
RightForeArm  -2.52324 29.8872 6.64808
RightHand  -1.5746 4.29893 -19.0451
LeftUpLeg  -38.5529 23.5788 -10.9072
LeftLeg  18.2651 3.62531 1.94916
LeftFoot  15.7383 -2.50716 10.0217
LeftToes  1.06243e-005 4.65856e-005 -8.18503e-006
295
root  31.9434 36.1163 -12.7715 19.7283 84.4787 19.2242
RightUpLeg  -1.01741 -6.20974 -10.0133
RightLeg  59.9899 -1.1807 -2.73114
RightFoot  -3.00799 -0.832806 11.107
RightToes  0.00048216 0.542163 -0.142577
Spine  25.0031 0.457972 1.45567
Spine1  13.2674 1.56561 -2.75813
HEad  -2.23007 0.169551 -0.498457
LeftShoulder1  10.4403 -16.2076 -46.1946
LeftArm  -11.3273 6.33978 -22.6141
LeftForeArm  23.3964 -10.1404 -5.27915
LeftHand  -0.25398 0.0180481 5.50724
RightShoulder  6.28055 11.9445 34.6909
RightArm  0.807976 25.7495 32.3813
RightForeArm  -2.30902 27.0314 5.89851
RightHand  -1.45569 3.87206 -18.4211
LeftUpLeg  -39.056 22.9111 -12.1451
LeftLeg  20.8502 4.17901 2.082
LeftFoot  12.9368 -2.53086 11.3424
LeftToes  1.06243e-005 4.65856e-005 -8.18503e-006
